<svg width="326" height="301" viewBox="0 0 326 301" fill="none" xmlns="http://www.w3.org/2000/svg">
<rect width="326" height="301" rx="15" fill="white"/>
<circle cx="49" cy="48" r="26" fill="#F6F4FC"/>
<path d="M94.512 44V31.4H99.66C101.148 31.4 102.324 31.802 103.188 32.606C104.052 33.41 104.484 34.472 104.484 35.792C104.484 37.196 104.004 38.288 103.044 39.068C102.084 39.836 100.866 40.22 99.39 40.22H97.284V44H94.512ZM97.284 37.754H99.48C100.164 37.754 100.698 37.574 101.082 37.214C101.478 36.854 101.676 36.386 101.676 35.81C101.676 35.198 101.478 34.73 101.082 34.406C100.686 34.07 100.134 33.902 99.426 33.902H97.284V37.754ZM114.707 42.758C113.711 43.73 112.469 44.216 110.981 44.216C109.493 44.216 108.251 43.736 107.255 42.776C106.271 41.804 105.779 40.61 105.779 39.194C105.779 37.79 106.277 36.602 107.273 35.63C108.281 34.658 109.529 34.172 111.017 34.172C112.505 34.172 113.741 34.658 114.725 35.63C115.721 36.59 116.219 37.778 116.219 39.194C116.219 40.598 115.715 41.786 114.707 42.758ZM111.017 41.858C111.773 41.858 112.379 41.606 112.835 41.102C113.291 40.586 113.519 39.95 113.519 39.194C113.519 38.462 113.279 37.838 112.799 37.322C112.331 36.794 111.725 36.53 110.981 36.53C110.225 36.53 109.619 36.788 109.163 37.304C108.707 37.808 108.479 38.438 108.479 39.194C108.479 39.926 108.713 40.556 109.181 41.084C109.661 41.6 110.273 41.858 111.017 41.858ZM122.755 44.216C121.315 44.216 120.115 43.73 119.155 42.758C118.207 41.786 117.733 40.598 117.733 39.194C117.733 37.802 118.213 36.62 119.173 35.648C120.133 34.664 121.339 34.172 122.791 34.172C124.339 34.172 125.617 34.736 126.625 35.864L125.023 37.484C124.351 36.848 123.601 36.53 122.773 36.53C122.101 36.53 121.543 36.788 121.099 37.304C120.655 37.82 120.433 38.45 120.433 39.194C120.433 39.95 120.655 40.586 121.099 41.102C121.555 41.606 122.149 41.858 122.881 41.858C123.637 41.858 124.375 41.516 125.095 40.832L126.697 42.452C126.169 43.028 125.605 43.466 125.005 43.766C124.405 44.066 123.655 44.216 122.755 44.216ZM136.026 34.352V36.692H133.164V44H130.392V36.692H127.53V34.352H136.026ZM151.681 34.352V44H148.945V36.692H145.651V44H142.915V34.352H151.681ZM154.13 46.88V34.352H156.866V35.738C157.634 34.694 158.636 34.172 159.872 34.172C161.072 34.172 162.104 34.622 162.968 35.522C163.832 36.422 164.264 37.646 164.264 39.194C164.264 40.73 163.832 41.948 162.968 42.848C162.116 43.736 161.084 44.18 159.872 44.18C158.672 44.18 157.67 43.7 156.866 42.74V46.88H154.13ZM157.496 41.12C157.952 41.612 158.51 41.858 159.17 41.858C159.83 41.858 160.388 41.612 160.844 41.12C161.3 40.616 161.528 39.962 161.528 39.158C161.528 38.378 161.3 37.742 160.844 37.25C160.388 36.746 159.83 36.494 159.17 36.494C158.51 36.494 157.952 36.746 157.496 37.25C157.052 37.742 156.83 38.39 156.83 39.194C156.83 39.974 157.052 40.616 157.496 41.12ZM175.259 34.352V44H172.613V38.384L168.851 44H166.277V34.352H168.923V39.986L172.685 34.352H175.259ZM182.509 41.858C183.193 41.858 183.751 41.624 184.183 41.156C184.615 40.676 184.831 40.082 184.831 39.374C184.831 38.678 184.603 38.084 184.147 37.592C183.703 37.1 183.145 36.854 182.473 36.854C181.789 36.854 181.231 37.1 180.799 37.592C180.367 38.072 180.151 38.666 180.151 39.374C180.151 40.07 180.373 40.658 180.817 41.138C181.273 41.618 181.837 41.858 182.509 41.858ZM182.473 44.216C180.841 44.216 179.593 43.724 178.729 42.74C177.865 41.744 177.433 40.316 177.433 38.456C177.433 37.796 177.457 37.214 177.505 36.71C177.553 36.194 177.655 35.648 177.811 35.072C177.979 34.496 178.201 34.004 178.477 33.596C178.765 33.188 179.161 32.822 179.665 32.498C180.181 32.174 180.787 31.946 181.483 31.814L186.649 30.86L187.081 33.02L181.789 34.064C180.325 34.364 179.545 35.12 179.449 36.332C179.677 35.936 180.097 35.57 180.709 35.234C181.321 34.886 182.071 34.712 182.959 34.712C184.207 34.712 185.281 35.156 186.181 36.044C187.081 36.932 187.531 38.03 187.531 39.338C187.531 40.694 187.051 41.846 186.091 42.794C185.131 43.742 183.925 44.216 182.473 44.216ZM189.48 44V34.352H192.216V37.538H194.196C195.36 37.538 196.29 37.808 196.986 38.348C197.694 38.888 198.048 39.68 198.048 40.724C198.048 41.744 197.718 42.548 197.058 43.136C196.41 43.712 195.504 44 194.34 44H189.48ZM193.926 39.608H192.216V41.84H193.944C194.844 41.84 195.294 41.456 195.294 40.688C195.294 40.352 195.174 40.088 194.934 39.896C194.706 39.704 194.37 39.608 193.926 39.608ZM199.326 44V34.352H202.062V44H199.326ZM205.661 34.352H213.419V44H210.683V36.692H208.235C208.235 37.964 208.187 39.038 208.091 39.914C207.995 40.79 207.863 41.504 207.695 42.056C207.527 42.608 207.293 43.034 206.993 43.334C206.693 43.634 206.369 43.838 206.021 43.946C205.673 44.054 205.241 44.108 204.725 44.108C204.233 44.108 203.771 44.054 203.339 43.946L203.519 41.732C203.735 41.768 203.927 41.786 204.095 41.786C204.383 41.786 204.611 41.72 204.779 41.588C204.947 41.444 205.103 41.132 205.247 40.652C205.403 40.16 205.511 39.41 205.571 38.402C205.631 37.382 205.661 36.032 205.661 34.352ZM224.847 34.352V44H222.201V38.384L218.439 44H215.865V34.352H218.511V39.986L222.273 34.352H224.847ZM94.224 66V56.352H96.96V60.312L100.416 56.352H103.566L100.02 60.312L104.016 66H100.776L98.202 62.328L96.96 63.678V66H94.224ZM113.688 64.758C112.692 65.73 111.45 66.216 109.962 66.216C108.474 66.216 107.232 65.736 106.236 64.776C105.252 63.804 104.76 62.61 104.76 61.194C104.76 59.79 105.258 58.602 106.254 57.63C107.262 56.658 108.51 56.172 109.998 56.172C111.486 56.172 112.722 56.658 113.706 57.63C114.702 58.59 115.2 59.778 115.2 61.194C115.2 62.598 114.696 63.786 113.688 64.758ZM109.998 63.858C110.754 63.858 111.36 63.606 111.816 63.102C112.272 62.586 112.5 61.95 112.5 61.194C112.5 60.462 112.26 59.838 111.78 59.322C111.312 58.794 110.706 58.53 109.962 58.53C109.206 58.53 108.6 58.788 108.144 59.304C107.688 59.808 107.46 60.438 107.46 61.194C107.46 61.926 107.694 62.556 108.162 63.084C108.642 63.6 109.254 63.858 109.998 63.858ZM117.181 66V56.352H119.953L122.563 60.402L125.209 56.352H127.981V66H125.209V60.204L122.527 64.164L119.881 60.258V66H117.181ZM139.201 56.352V66H136.465V58.692H133.171V66H130.435V56.352H139.201ZM144.386 66.18C143.438 66.18 142.646 65.916 142.01 65.388C141.386 64.86 141.074 64.128 141.074 63.192C141.074 62.172 141.422 61.404 142.118 60.888C142.826 60.372 143.774 60.114 144.962 60.114C145.766 60.114 146.552 60.246 147.32 60.51V60.348C147.32 59.172 146.63 58.584 145.25 58.584C144.422 58.584 143.534 58.758 142.586 59.106L141.902 57.018C143.078 56.502 144.326 56.244 145.646 56.244C147.098 56.244 148.184 56.604 148.904 57.324C149.6 58.02 149.948 59.046 149.948 60.402V66H147.302V64.956C146.57 65.772 145.598 66.18 144.386 66.18ZM145.214 64.29C145.85 64.29 146.366 64.134 146.762 63.822C147.158 63.498 147.356 63.09 147.356 62.598V62.112C146.84 61.872 146.258 61.752 145.61 61.752C145.01 61.752 144.542 61.872 144.206 62.112C143.882 62.34 143.72 62.676 143.72 63.12C143.72 63.48 143.858 63.768 144.134 63.984C144.41 64.188 144.77 64.29 145.214 64.29ZM161.14 56.352V66H158.404V62.31H155.038V66H152.302V56.352H155.038V60.06H158.404V56.352H161.14ZM172.569 56.352V66H169.923V60.384L166.161 66H163.587V56.352H166.233V61.986L169.995 56.352H172.569ZM183.995 56.352V66H181.349V60.384L177.587 66H175.013V56.352H177.659V61.986L181.421 56.352H183.995Z" fill="#121B30"/>
<path d="M27.888 117V115.506H24.567L24.387 114.993L27.951 110.655H28.572V114.912H29.553V115.506H28.572V117H27.888ZM25.242 114.912H27.888V111.663L25.242 114.912ZM35.1771 116.163C34.6851 116.793 34.0431 117.108 33.2511 117.108C32.4591 117.108 31.8171 116.796 31.3251 116.172C30.8391 115.542 30.5961 114.768 30.5961 113.85C30.5961 112.944 30.8421 112.176 31.3341 111.546C31.8321 110.91 32.4771 110.592 33.2691 110.592C34.0611 110.592 34.7001 110.907 35.1861 111.537C35.6721 112.161 35.9151 112.932 35.9151 113.85C35.9151 114.756 35.6691 115.527 35.1771 116.163ZM31.8741 115.695C32.2341 116.205 32.6991 116.46 33.2691 116.46C33.8391 116.46 34.2981 116.208 34.6461 115.704C35.0001 115.194 35.1771 114.576 35.1771 113.85C35.1771 113.136 34.9971 112.524 34.6371 112.014C34.2831 111.498 33.8211 111.24 33.2511 111.24C32.6811 111.24 32.2191 111.495 31.8651 112.005C31.5111 112.509 31.3341 113.124 31.3341 113.85C31.3341 114.564 31.5141 115.179 31.8741 115.695ZM41.6107 116.163C41.1187 116.793 40.4767 117.108 39.6847 117.108C38.8927 117.108 38.2507 116.796 37.7587 116.172C37.2727 115.542 37.0297 114.768 37.0297 113.85C37.0297 112.944 37.2757 112.176 37.7677 111.546C38.2657 110.91 38.9107 110.592 39.7027 110.592C40.4947 110.592 41.1337 110.907 41.6197 111.537C42.1057 112.161 42.3487 112.932 42.3487 113.85C42.3487 114.756 42.1027 115.527 41.6107 116.163ZM38.3077 115.695C38.6677 116.205 39.1327 116.46 39.7027 116.46C40.2727 116.46 40.7317 116.208 41.0797 115.704C41.4337 115.194 41.6107 114.576 41.6107 113.85C41.6107 113.136 41.4307 112.524 41.0707 112.014C40.7167 111.498 40.2547 111.24 39.6847 111.24C39.1147 111.24 38.6527 111.495 38.2987 112.005C37.9447 112.509 37.7677 113.124 37.7677 113.85C37.7677 114.564 37.9477 115.179 38.3077 115.695Z" fill="#878E9C"/>
<path d="M26.799 153.108C25.809 153.108 25.026 152.733 24.45 151.983L24.963 151.524C25.473 152.148 26.088 152.46 26.808 152.46C27.198 152.46 27.525 152.346 27.789 152.118C28.053 151.89 28.185 151.59 28.185 151.218C28.185 150.834 28.023 150.537 27.699 150.327C27.375 150.111 26.949 150.003 26.421 150.003H26.016L25.872 149.58L27.861 147.339H24.783V146.7H28.806V147.222L26.826 149.418C27.426 149.466 27.921 149.64 28.311 149.94C28.707 150.234 28.905 150.657 28.905 151.209C28.905 151.761 28.701 152.217 28.293 152.577C27.891 152.931 27.393 153.108 26.799 153.108ZM34.6585 152.163C34.1665 152.793 33.5245 153.108 32.7325 153.108C31.9405 153.108 31.2985 152.796 30.8065 152.172C30.3205 151.542 30.0775 150.768 30.0775 149.85C30.0775 148.944 30.3235 148.176 30.8155 147.546C31.3135 146.91 31.9585 146.592 32.7505 146.592C33.5425 146.592 34.1815 146.907 34.6675 147.537C35.1535 148.161 35.3965 148.932 35.3965 149.85C35.3965 150.756 35.1505 151.527 34.6585 152.163ZM31.3555 151.695C31.7155 152.205 32.1805 152.46 32.7505 152.46C33.3205 152.46 33.7795 152.208 34.1275 151.704C34.4815 151.194 34.6585 150.576 34.6585 149.85C34.6585 149.136 34.4785 148.524 34.1185 148.014C33.7645 147.498 33.3025 147.24 32.7325 147.24C32.1625 147.24 31.7005 147.495 31.3465 148.005C30.9925 148.509 30.8155 149.124 30.8155 149.85C30.8155 150.564 30.9955 151.179 31.3555 151.695ZM41.0921 152.163C40.6001 152.793 39.9581 153.108 39.1661 153.108C38.3741 153.108 37.7321 152.796 37.2401 152.172C36.7541 151.542 36.5111 150.768 36.5111 149.85C36.5111 148.944 36.7571 148.176 37.2491 147.546C37.7471 146.91 38.3921 146.592 39.1841 146.592C39.9761 146.592 40.6151 146.907 41.1011 147.537C41.5871 148.161 41.8301 148.932 41.8301 149.85C41.8301 150.756 41.5841 151.527 41.0921 152.163ZM37.7891 151.695C38.1491 152.205 38.6141 152.46 39.1841 152.46C39.7541 152.46 40.2131 152.208 40.5611 151.704C40.9151 151.194 41.0921 150.576 41.0921 149.85C41.0921 149.136 40.9121 148.524 40.5521 148.014C40.1981 147.498 39.7361 147.24 39.1661 147.24C38.5961 147.24 38.1341 147.495 37.7801 148.005C37.4261 148.509 37.2491 149.124 37.2491 149.85C37.2491 150.564 37.4291 151.179 37.7891 151.695Z" fill="#878E9C"/>
<path d="M24.432 196V195.451L26.718 193.435C27.21 193.003 27.552 192.643 27.744 192.355C27.936 192.067 28.032 191.767 28.032 191.455C28.032 191.095 27.909 190.804 27.663 190.582C27.417 190.36 27.117 190.249 26.763 190.249C26.421 190.249 26.118 190.336 25.854 190.51C25.596 190.684 25.335 190.957 25.071 191.329L24.549 190.951C24.855 190.495 25.179 190.159 25.521 189.943C25.863 189.721 26.295 189.61 26.817 189.61C27.381 189.61 27.846 189.781 28.212 190.123C28.584 190.459 28.77 190.888 28.77 191.41C28.77 191.842 28.653 192.226 28.419 192.562C28.185 192.898 27.771 193.33 27.177 193.858L25.494 195.352H28.833V196H24.432ZM34.5267 195.163C34.0347 195.793 33.3927 196.108 32.6007 196.108C31.8087 196.108 31.1667 195.796 30.6747 195.172C30.1887 194.542 29.9457 193.768 29.9457 192.85C29.9457 191.944 30.1917 191.176 30.6837 190.546C31.1817 189.91 31.8267 189.592 32.6187 189.592C33.4107 189.592 34.0497 189.907 34.5357 190.537C35.0217 191.161 35.2647 191.932 35.2647 192.85C35.2647 193.756 35.0187 194.527 34.5267 195.163ZM31.2237 194.695C31.5837 195.205 32.0487 195.46 32.6187 195.46C33.1887 195.46 33.6477 195.208 33.9957 194.704C34.3497 194.194 34.5267 193.576 34.5267 192.85C34.5267 192.136 34.3467 191.524 33.9867 191.014C33.6327 190.498 33.1707 190.24 32.6007 190.24C32.0307 190.24 31.5687 190.495 31.2147 191.005C30.8607 191.509 30.6837 192.124 30.6837 192.85C30.6837 193.564 30.8637 194.179 31.2237 194.695ZM40.9603 195.163C40.4683 195.793 39.8263 196.108 39.0343 196.108C38.2423 196.108 37.6003 195.796 37.1083 195.172C36.6223 194.542 36.3793 193.768 36.3793 192.85C36.3793 191.944 36.6253 191.176 37.1173 190.546C37.6153 189.91 38.2603 189.592 39.0523 189.592C39.8443 189.592 40.4833 189.907 40.9693 190.537C41.4553 191.161 41.6983 191.932 41.6983 192.85C41.6983 193.756 41.4523 194.527 40.9603 195.163ZM37.6573 194.695C38.0173 195.205 38.4823 195.46 39.0523 195.46C39.6223 195.46 40.0813 195.208 40.4293 194.704C40.7833 194.194 40.9603 193.576 40.9603 192.85C40.9603 192.136 40.7803 191.524 40.4203 191.014C40.0663 190.498 39.6043 190.24 39.0343 190.24C38.4643 190.24 38.0023 190.495 37.6483 191.005C37.2943 191.509 37.1173 192.124 37.1173 192.85C37.1173 193.564 37.2973 194.179 37.6573 194.695Z" fill="#878E9C"/>
<path d="M25.611 236V230.393L24.423 230.762L24.252 230.186L25.791 229.655H26.313V236H25.611ZM32.3646 235.163C31.8726 235.793 31.2306 236.108 30.4386 236.108C29.6466 236.108 29.0046 235.796 28.5126 235.172C28.0266 234.542 27.7836 233.768 27.7836 232.85C27.7836 231.944 28.0296 231.176 28.5216 230.546C29.0196 229.91 29.6646 229.592 30.4566 229.592C31.2486 229.592 31.8876 229.907 32.3736 230.537C32.8596 231.161 33.1026 231.932 33.1026 232.85C33.1026 233.756 32.8566 234.527 32.3646 235.163ZM29.0616 234.695C29.4216 235.205 29.8866 235.46 30.4566 235.46C31.0266 235.46 31.4856 235.208 31.8336 234.704C32.1876 234.194 32.3646 233.576 32.3646 232.85C32.3646 232.136 32.1846 231.524 31.8246 231.014C31.4706 230.498 31.0086 230.24 30.4386 230.24C29.8686 230.24 29.4066 230.495 29.0526 231.005C28.6986 231.509 28.5216 232.124 28.5216 232.85C28.5216 233.564 28.7016 234.179 29.0616 234.695ZM38.7982 235.163C38.3062 235.793 37.6642 236.108 36.8722 236.108C36.0802 236.108 35.4382 235.796 34.9462 235.172C34.4602 234.542 34.2172 233.768 34.2172 232.85C34.2172 231.944 34.4632 231.176 34.9552 230.546C35.4532 229.91 36.0982 229.592 36.8902 229.592C37.6822 229.592 38.3212 229.907 38.8072 230.537C39.2932 231.161 39.5362 231.932 39.5362 232.85C39.5362 233.756 39.2902 234.527 38.7982 235.163ZM35.4952 234.695C35.8552 235.205 36.3202 235.46 36.8902 235.46C37.4602 235.46 37.9192 235.208 38.2672 234.704C38.6212 234.194 38.7982 233.576 38.7982 232.85C38.7982 232.136 38.6182 231.524 38.2582 231.014C37.9042 230.498 37.4422 230.24 36.8722 230.24C36.3022 230.24 35.8402 230.495 35.4862 231.005C35.1322 231.509 34.9552 232.124 34.9552 232.85C34.9552 233.564 35.1352 234.179 35.4952 234.695Z" fill="#878E9C"/>
<rect x="55.5" y="112.5" width="237" height="163" stroke="#E6EBF0"/>
<line x1="55" y1="152.5" x2="293" y2="152.5" stroke="#E6EBF0"/>
<line x1="89.5" y1="276" x2="89.5" y2="112" stroke="#E6EBF0"/>
<line x1="123.5" y1="276" x2="123.5" y2="112" stroke="#E6EBF0"/>
<line x1="157.5" y1="276" x2="157.5" y2="112" stroke="#E6EBF0"/>
<line x1="191.5" y1="276" x2="191.5" y2="112" stroke="#E6EBF0"/>
<line x1="226.5" y1="276" x2="226.5" y2="112" stroke="#E6EBF0"/>
<line x1="292.5" y1="276" x2="292.5" y2="112" stroke="#E6EBF0"/>
<line x1="257.5" y1="276" x2="257.5" y2="112" stroke="#E6EBF0"/>
<line x1="55" y1="195.5" x2="293" y2="195.5" stroke="#E6EBF0"/>
<line x1="55" y1="236.5" x2="293" y2="236.5" stroke="#E6EBF0"/>
<path d="M55 256.5C61.8333 242.833 80.6 209.4 115 201C158 190.5 191 220.5 220 192C249 163.5 241 120.5 292 123" stroke="#FFD02C" stroke-width="5"/>
<path d="M52.0024 40H58.9999C59.5128 40 59.9355 40.4688 59.9933 41.0728L60 41.2144V49.7153C60 50.386 59.5522 50.9298 58.9999 50.9298C58.487 50.9298 58.0643 50.4609 58.0065 49.857L57.9998 49.7153L57.999 44.146L50.7061 53.0029C50.3458 53.4404 49.7789 53.4743 49.3866 53.1045L49.2923 53.0036L46.9961 50.2202L41.7074 56.6442C41.3169 57.1185 40.6837 57.1186 40.293 56.6444C39.9325 56.2067 39.9046 55.5179 40.2096 55.0414L40.2928 54.927L46.2881 47.6447C46.6483 47.2071 47.2153 47.1731 47.6077 47.543L47.7019 47.6439L49.9983 50.4275L56.5838 42.4288H52.0024C51.4895 42.4288 51.0668 41.96 51.009 41.356L51.0023 41.2144C51.0023 40.5916 51.3884 40.0783 51.8858 40.0082L52.0024 40Z" fill="#05BC39"/>
</svg>
