<svg width="159" height="186" viewBox="0 0 159 186" fill="none" xmlns="http://www.w3.org/2000/svg">
<rect width="159" height="186" rx="21" fill="#121B30"/>
<path d="M46.577 136H45.293L41.345 131.92V136H40.349V127.6H41.345V131.536L45.161 127.6H46.433L42.461 131.716L46.577 136ZM57.2981 136H55.9901L52.4621 132.82V136H51.4661V129.4H52.4621V132.34L55.6781 129.4H56.9861L53.5181 132.532L57.2981 136ZM60.9966 129.268C61.9486 129.268 62.7526 129.596 63.4086 130.252C64.0726 130.9 64.4046 131.716 64.4046 132.7C64.4046 133.684 64.0766 134.504 63.4206 135.16C62.7646 135.808 61.9566 136.132 60.9966 136.132C60.0446 136.132 59.2406 135.804 58.5846 135.148C57.9286 134.492 57.6006 133.676 57.6006 132.7C57.6006 131.724 57.9286 130.908 58.5846 130.252C59.2486 129.596 60.0526 129.268 60.9966 129.268ZM62.7006 130.924C62.2366 130.452 61.6686 130.216 60.9966 130.216C60.3246 130.216 59.7566 130.452 59.2926 130.924C58.8366 131.388 58.6086 131.98 58.6086 132.7C58.6086 133.42 58.8366 134.016 59.2926 134.488C59.7566 134.952 60.3246 135.184 60.9966 135.184C61.6766 135.184 62.2446 134.952 62.7006 134.488C63.1646 134.016 63.3966 133.42 63.3966 132.7C63.3966 131.98 63.1646 131.388 62.7006 130.924ZM67.1255 129.4H71.6135V136H70.6175V130.336H67.9655L67.4735 133.432C67.3135 134.4 67.0695 135.092 66.7415 135.508C66.4215 135.924 65.9935 136.132 65.4575 136.132C65.2655 136.132 65.0855 136.12 64.9175 136.096V135.184C65.0615 135.2 65.1775 135.208 65.2655 135.208C65.6095 135.208 65.8695 135.08 66.0455 134.824C66.2215 134.56 66.3695 134.076 66.4895 133.372L67.1255 129.4ZM78.1319 129.4H79.3559V136H78.3599V132.832L78.4199 130.612L74.6159 136H73.3919V129.4H74.3879V132.568L74.3279 134.776L78.1319 129.4ZM85.3866 129.4H86.3826V136H85.3866V133.612C84.8106 133.86 84.1626 133.984 83.4426 133.984C81.7306 133.984 80.8746 133.172 80.8746 131.548V129.4H81.8706V131.32C81.8706 131.944 82.0026 132.396 82.2666 132.676C82.5386 132.948 82.9866 133.084 83.6106 133.084C84.3786 133.084 84.9706 132.956 85.3866 132.7V129.4ZM91.2655 129.268C92.2895 129.268 93.1055 129.616 93.7135 130.312C94.3215 131.008 94.6055 131.904 94.5655 133H88.9135C88.9615 133.68 89.2055 134.216 89.6455 134.608C90.0855 135 90.6415 135.196 91.3135 135.196C92.2975 135.196 92.9855 134.812 93.3775 134.044H94.4095C94.1375 134.724 93.7255 135.244 93.1735 135.604C92.6215 135.956 91.9895 136.132 91.2775 136.132C90.2935 136.132 89.4815 135.816 88.8415 135.184C88.2095 134.544 87.8935 133.724 87.8935 132.724C87.8935 131.724 88.2095 130.9 88.8415 130.252C89.4735 129.596 90.2815 129.268 91.2655 129.268ZM91.2655 130.204C90.6735 130.204 90.1695 130.376 89.7535 130.72C89.3455 131.064 89.0815 131.512 88.9615 132.064H93.4855C93.3735 131.504 93.1215 131.056 92.7295 130.72C92.3375 130.376 91.8495 130.204 91.2655 130.204ZM99.1648 136.132C98.1968 136.132 97.3848 135.808 96.7288 135.16C96.0808 134.504 95.7568 133.684 95.7568 132.7C95.7568 131.716 96.0808 130.9 96.7288 130.252C97.3848 129.596 98.1968 129.268 99.1648 129.268C99.9488 129.268 100.637 129.488 101.229 129.928C101.821 130.368 102.201 130.96 102.369 131.704H101.337C101.185 131.24 100.913 130.872 100.521 130.6C100.129 130.328 99.6768 130.192 99.1648 130.192C98.4688 130.192 97.8928 130.428 97.4368 130.9C96.9888 131.372 96.7648 131.972 96.7648 132.7C96.7648 133.428 96.9888 134.028 97.4368 134.5C97.8928 134.972 98.4688 135.208 99.1648 135.208C99.6768 135.208 100.125 135.072 100.509 134.8C100.901 134.528 101.177 134.16 101.337 133.696H102.369C102.193 134.448 101.809 135.044 101.217 135.484C100.625 135.916 99.9408 136.132 99.1648 136.132ZM108.524 129.4V130.336H106.244V136H105.248V130.336H102.968V129.4H106.244H108.524ZM114.016 132.484C114.864 132.716 115.288 133.264 115.288 134.128C115.288 134.712 115.092 135.172 114.7 135.508C114.308 135.836 113.732 136 112.972 136H109.72V129.4H112.672C114.208 129.4 114.976 129.96 114.976 131.08C114.976 131.688 114.656 132.156 114.016 132.484ZM113.968 131.248C113.968 130.904 113.868 130.644 113.668 130.468C113.468 130.292 113.112 130.204 112.6 130.204H110.716V132.22H112.576C113.504 132.22 113.968 131.896 113.968 131.248ZM112.912 135.196C113.832 135.196 114.292 134.812 114.292 134.044C114.292 133.324 113.824 132.964 112.888 132.964H110.716V135.196H112.912ZM121.329 129.4H122.397L117.945 139H116.877L118.629 135.196L115.953 129.4H117.021L119.157 134.128L121.329 129.4ZM58.0716 154H56.7636L53.2356 150.82V154H52.2396V147.4H53.2356V150.34L56.4516 147.4H57.7596L54.2916 150.532L58.0716 154ZM60.9028 147.4H65.3908V154H64.3948V148.336H61.7428L61.2508 151.432C61.0908 152.4 60.8468 153.092 60.5188 153.508C60.1988 153.924 59.7708 154.132 59.2348 154.132C59.0428 154.132 58.8628 154.12 58.6948 154.096V153.184C58.8388 153.2 58.9548 153.208 59.0428 153.208C59.3868 153.208 59.6468 153.08 59.8228 152.824C59.9988 152.56 60.1468 152.076 60.2668 151.372L60.9028 147.4ZM71.9093 147.4H73.1333V154H72.1373V150.832L72.1973 148.612L68.3933 154H67.1693V147.4H68.1653V150.568L68.1053 152.776L71.9093 147.4ZM77.9999 147.268C79.0239 147.268 79.8399 147.616 80.4479 148.312C81.0559 149.008 81.3399 149.904 81.2999 151H75.6479C75.6959 151.68 75.9399 152.216 76.3799 152.608C76.8199 153 77.3759 153.196 78.0479 153.196C79.0319 153.196 79.7199 152.812 80.1119 152.044H81.1439C80.8719 152.724 80.4599 153.244 79.9079 153.604C79.3559 153.956 78.7239 154.132 78.0119 154.132C77.0279 154.132 76.2159 153.816 75.5759 153.184C74.9439 152.544 74.6279 151.724 74.6279 150.724C74.6279 149.724 74.9439 148.9 75.5759 148.252C76.2079 147.596 77.0159 147.268 77.9999 147.268ZM77.9999 148.204C77.4079 148.204 76.9039 148.376 76.4879 148.72C76.0799 149.064 75.8159 149.512 75.6959 150.064H80.2199C80.1079 149.504 79.8559 149.056 79.4639 148.72C79.0719 148.376 78.5839 148.204 77.9999 148.204ZM87.8072 147.4H88.8032V154H87.8072V151.096H83.7512V154H82.7552V147.4H83.7512V150.148H87.8072V147.4ZM95.5633 147.4V148.336H93.2833V154H92.2873V148.336H90.0073V147.4H93.2833H95.5633ZM99.6802 147.268C100.632 147.268 101.436 147.596 102.092 148.252C102.756 148.9 103.088 149.716 103.088 150.7C103.088 151.684 102.76 152.504 102.104 153.16C101.448 153.808 100.64 154.132 99.6802 154.132C98.7282 154.132 97.9242 153.804 97.2682 153.148C96.6122 152.492 96.2842 151.676 96.2842 150.7C96.2842 149.724 96.6122 148.908 97.2682 148.252C97.9322 147.596 98.7362 147.268 99.6802 147.268ZM101.384 148.924C100.92 148.452 100.352 148.216 99.6802 148.216C99.0082 148.216 98.4402 148.452 97.9762 148.924C97.5202 149.388 97.2922 149.98 97.2922 150.7C97.2922 151.42 97.5202 152.016 97.9762 152.488C98.4402 152.952 99.0082 153.184 99.6802 153.184C100.36 153.184 100.928 152.952 101.384 152.488C101.848 152.016 102.08 151.42 102.08 150.7C102.08 149.98 101.848 149.388 101.384 148.924ZM108.883 150.484C109.731 150.716 110.155 151.264 110.155 152.128C110.155 152.712 109.959 153.172 109.567 153.508C109.175 153.836 108.599 154 107.839 154H104.587V147.4H107.539C109.075 147.4 109.843 147.96 109.843 149.08C109.843 149.688 109.523 150.156 108.883 150.484ZM108.835 149.248C108.835 148.904 108.735 148.644 108.535 148.468C108.335 148.292 107.979 148.204 107.467 148.204H105.583V150.22H107.443C108.371 150.22 108.835 149.896 108.835 149.248ZM107.779 153.196C108.699 153.196 109.159 152.812 109.159 152.044C109.159 151.324 108.691 150.964 107.755 150.964H105.583V153.196H107.779Z" fill="white"/>
<path d="M55.0639 100.01V104.278H59.3319V106.654H55.0639V110.922H52.5779V106.654H48.3099V104.278H52.5779V100.01H55.0639ZM71.0372 103.926C71.8586 104.219 72.4892 104.703 72.9292 105.378C73.3839 106.053 73.6112 106.837 73.6112 107.732C73.6112 109.111 73.0612 110.211 71.9612 111.032C70.8759 111.853 69.4972 112.264 67.8252 112.264C66.1386 112.264 64.7452 111.853 63.6452 111.032C62.5599 110.211 62.0172 109.111 62.0172 107.732C62.0172 106.837 62.2372 106.053 62.6772 105.378C63.1319 104.703 63.7699 104.219 64.5912 103.926C63.9312 103.647 63.4179 103.215 63.0512 102.628C62.6846 102.041 62.5012 101.381 62.5012 100.648C62.5012 99.372 63.0072 98.338 64.0192 97.546C65.0312 96.7393 66.2999 96.336 67.8252 96.336C69.3359 96.336 70.5972 96.7393 71.6092 97.546C72.6212 98.338 73.1272 99.372 73.1272 100.648C73.1272 101.381 72.9439 102.041 72.5772 102.628C72.2106 103.215 71.6972 103.647 71.0372 103.926ZM67.8252 98.69C66.9306 98.69 66.2339 98.8953 65.7352 99.306C65.2366 99.702 64.9872 100.252 64.9872 100.956C64.9872 102.305 65.9332 102.98 67.8252 102.98C69.7026 102.98 70.6412 102.305 70.6412 100.956C70.6412 100.252 70.3919 99.702 69.8932 99.306C69.3946 98.8953 68.7052 98.69 67.8252 98.69ZM67.8252 109.91C68.8372 109.91 69.6366 109.705 70.2232 109.294C70.8246 108.869 71.1252 108.275 71.1252 107.512C71.1252 105.928 70.0252 105.136 67.8252 105.136C65.6106 105.136 64.5032 105.928 64.5032 107.512C64.5032 108.275 64.7966 108.869 65.3832 109.294C65.9846 109.705 66.7986 109.91 67.8252 109.91ZM82.0675 96.336C84.0915 96.336 85.6682 97.0473 86.7975 98.47C87.9268 99.878 88.4915 101.821 88.4915 104.3C88.4915 106.779 87.9268 108.729 86.7975 110.152C85.6682 111.56 84.0915 112.264 82.0675 112.264C80.0582 112.264 78.4888 111.56 77.3595 110.152C76.2302 108.744 75.6655 106.793 75.6655 104.3C75.6655 101.807 76.2302 99.856 77.3595 98.448C78.4888 97.04 80.0582 96.336 82.0675 96.336ZM82.0675 109.888C84.6782 109.888 85.9835 108.025 85.9835 104.3C85.9835 100.575 84.6782 98.712 82.0675 98.712C79.4715 98.712 78.1735 100.575 78.1735 104.3C78.1735 108.025 79.4715 109.888 82.0675 109.888ZM98.601 104.388C97.853 105.195 96.8483 105.598 95.587 105.598C94.3257 105.598 93.3137 105.202 92.551 104.41C91.803 103.603 91.429 102.459 91.429 100.978C91.429 99.4967 91.803 98.3527 92.551 97.546C93.3137 96.7393 94.3257 96.336 95.587 96.336C96.8337 96.336 97.8383 96.7467 98.601 97.568C99.3637 98.3747 99.745 99.5113 99.745 100.978C99.745 102.445 99.3637 103.581 98.601 104.388ZM107.159 96.6L98.359 112H95.961L104.761 96.6H107.159ZM93.607 100.978C93.607 102.767 94.267 103.662 95.587 103.662C96.907 103.662 97.567 102.767 97.567 100.978C97.567 99.1887 96.907 98.294 95.587 98.294C94.267 98.294 93.607 99.1887 93.607 100.978ZM104.519 104.212C105.282 103.405 106.294 103.002 107.555 103.002C108.816 103.002 109.821 103.405 110.569 104.212C111.332 105.019 111.713 106.155 111.713 107.622C111.713 109.089 111.332 110.233 110.569 111.054C109.806 111.861 108.802 112.264 107.555 112.264C106.294 112.264 105.282 111.861 104.519 111.054C103.771 110.247 103.397 109.103 103.397 107.622C103.397 106.141 103.771 105.004 104.519 104.212ZM107.555 104.938C106.22 104.938 105.553 105.833 105.553 107.622C105.553 109.411 106.22 110.306 107.555 110.306C108.875 110.306 109.535 109.411 109.535 107.622C109.535 105.833 108.875 104.938 107.555 104.938Z" fill="white"/>
<circle cx="80" cy="52" r="26" fill="#F6F4FC"/>
<path d="M82.8797 50.252C84.0073 50.252 84.9214 51.0637 84.9214 52.065V56.9849C84.9214 59.5603 82.5703 61.648 79.6701 61.648C76.77 61.648 74.4189 59.5603 74.4189 56.9849V52.065C74.4189 51.0637 75.333 50.252 76.4606 50.252H82.8797ZM82.8797 51.806H76.4606C76.2995 51.806 76.1689 51.922 76.1689 52.065V56.9849C76.1689 58.702 77.7365 60.094 79.6701 60.094C81.6038 60.094 83.1714 58.702 83.1714 56.9849V52.065C83.1714 51.922 83.0408 51.806 82.8797 51.806ZM70.0417 50.252L73.9865 50.251C73.5859 50.6814 73.3249 51.218 73.2653 51.8062L70.0417 51.806C69.8806 51.806 69.75 51.922 69.75 52.065V55.4307C69.75 56.8619 71.0565 58.022 72.6681 58.022C72.9014 58.022 73.1284 57.9977 73.3459 57.9518C73.4447 58.4738 73.6251 58.9718 73.874 59.4351C73.4901 59.5274 73.0855 59.576 72.6681 59.576C70.09 59.576 68 57.7201 68 55.4307V52.065C68 51.0637 68.9141 50.252 70.0417 50.252ZM85.3538 50.251L89.2917 50.252C90.4193 50.252 91.3333 51.0637 91.3333 52.065V55.432C91.3333 57.7207 89.244 59.576 86.6667 59.576C86.2508 59.576 85.8477 59.5277 85.464 59.4371C85.7147 58.9728 85.8953 58.4749 85.9959 57.9527C86.2107 57.9981 86.4355 58.022 86.6667 58.022C88.2775 58.022 89.5833 56.8624 89.5833 55.432V52.065C89.5833 51.922 89.4528 51.806 89.2917 51.806L86.075 51.8062C86.0153 51.218 85.7544 50.6814 85.3538 50.251ZM79.6667 43C81.5997 43 83.1667 44.3915 83.1667 46.108C83.1667 47.8245 81.5997 49.216 79.6667 49.216C77.7337 49.216 76.1667 47.8245 76.1667 46.108C76.1667 44.3915 77.7337 43 79.6667 43ZM87.25 44.036C88.8608 44.036 90.1667 45.1956 90.1667 46.626C90.1667 48.0564 88.8608 49.216 87.25 49.216C85.6392 49.216 84.3333 48.0564 84.3333 46.626C84.3333 45.1956 85.6392 44.036 87.25 44.036ZM72.0833 44.036C73.6942 44.036 75 45.1956 75 46.626C75 48.0564 73.6942 49.216 72.0833 49.216C70.4725 49.216 69.1667 48.0564 69.1667 46.626C69.1667 45.1956 70.4725 44.036 72.0833 44.036ZM79.6667 44.554C78.7002 44.554 77.9167 45.2498 77.9167 46.108C77.9167 46.9663 78.7002 47.662 79.6667 47.662C80.6332 47.662 81.4167 46.9663 81.4167 46.108C81.4167 45.2498 80.6332 44.554 79.6667 44.554ZM87.25 45.59C86.6057 45.59 86.0833 46.0538 86.0833 46.626C86.0833 47.1982 86.6057 47.662 87.25 47.662C87.8943 47.662 88.4167 47.1982 88.4167 46.626C88.4167 46.0538 87.8943 45.59 87.25 45.59ZM72.0833 45.59C71.439 45.59 70.9167 46.0538 70.9167 46.626C70.9167 47.1982 71.439 47.662 72.0833 47.662C72.7277 47.662 73.25 47.1982 73.25 46.626C73.25 46.0538 72.7277 45.59 72.0833 45.59Z" fill="#121B30"/>
</svg>
