<svg width="288" height="99" viewBox="0 0 288 99" fill="none" xmlns="http://www.w3.org/2000/svg">
<rect width="288" height="99" rx="21" fill="#121B30"/>
<path d="M93.92 50.6V59H92.924V51.548H88.052V59H87.056V50.6H88.052H93.92ZM99.4646 52.268C100.361 52.268 101.097 52.592 101.673 53.24C102.257 53.88 102.549 54.7 102.549 55.7C102.549 56.7 102.257 57.524 101.673 58.172C101.089 58.812 100.349 59.132 99.4526 59.132C98.8926 59.132 98.3926 59.004 97.9526 58.748C97.5206 58.484 97.1766 58.124 96.9206 57.668V62H95.9246V52.4H96.9206V53.756C97.1766 53.292 97.5246 52.928 97.9646 52.664C98.4046 52.4 98.9046 52.268 99.4646 52.268ZM99.2726 58.184C99.9366 58.184 100.481 57.952 100.905 57.488C101.329 57.024 101.541 56.428 101.541 55.7C101.541 54.98 101.329 54.388 100.905 53.924C100.481 53.452 99.9366 53.216 99.2726 53.216C98.5926 53.216 98.0286 53.452 97.5806 53.924C97.1326 54.388 96.9086 54.98 96.9086 55.7C96.9086 56.42 97.1326 57.016 97.5806 57.488C98.0286 57.952 98.5926 58.184 99.2726 58.184ZM107.188 52.268C108.14 52.268 108.944 52.596 109.6 53.252C110.264 53.9 110.596 54.716 110.596 55.7C110.596 56.684 110.268 57.504 109.612 58.16C108.956 58.808 108.148 59.132 107.188 59.132C106.236 59.132 105.432 58.804 104.776 58.148C104.12 57.492 103.792 56.676 103.792 55.7C103.792 54.724 104.12 53.908 104.776 53.252C105.44 52.596 106.244 52.268 107.188 52.268ZM108.892 53.924C108.428 53.452 107.86 53.216 107.188 53.216C106.516 53.216 105.948 53.452 105.484 53.924C105.028 54.388 104.8 54.98 104.8 55.7C104.8 56.42 105.028 57.016 105.484 57.488C105.948 57.952 106.516 58.184 107.188 58.184C107.868 58.184 108.436 57.952 108.892 57.488C109.356 57.016 109.588 56.42 109.588 55.7C109.588 54.98 109.356 54.388 108.892 53.924ZM118.012 58.064H119.212V60.764H118.216V59H117.016H111.988V60.764H110.992V58.064H112.12C112.48 57.816 112.748 57.124 112.924 55.988L113.5 52.4H118.012V58.064ZM113.236 58.064H117.016V53.336H114.352L113.92 56.012C113.76 57.004 113.532 57.688 113.236 58.064ZM125.463 52.4H126.459V59H125.463V57.668C125.199 58.124 124.847 58.484 124.407 58.748C123.975 59.004 123.479 59.132 122.919 59.132C122.023 59.132 121.283 58.812 120.699 58.172C120.123 57.524 119.835 56.7 119.835 55.7C119.835 54.7 120.123 53.88 120.699 53.24C121.283 52.592 122.023 52.268 122.919 52.268C123.479 52.268 123.979 52.4 124.419 52.664C124.859 52.928 125.207 53.292 125.463 53.756V52.4ZM123.111 58.184C123.791 58.184 124.355 57.952 124.803 57.488C125.251 57.016 125.475 56.42 125.475 55.7C125.475 54.98 125.251 54.388 124.803 53.924C124.355 53.452 123.791 53.216 123.111 53.216C122.439 53.216 121.891 53.452 121.467 53.924C121.051 54.388 120.843 54.98 120.843 55.7C120.843 56.428 121.055 57.024 121.479 57.488C121.903 57.952 122.447 58.184 123.111 58.184ZM138.324 59H137.016L133.488 55.808V59H132.492V55.808L128.964 59H127.656L131.436 55.532L127.956 52.4H129.264L132.492 55.352V52.4H133.488V55.352L136.716 52.4H138.024L134.544 55.532L138.324 59ZM147.398 52.4H148.394V59H147.398V56.612C146.822 56.86 146.174 56.984 145.454 56.984C143.742 56.984 142.886 56.172 142.886 54.548V52.4H143.882V54.32C143.882 54.944 144.014 55.396 144.278 55.676C144.55 55.948 144.998 56.084 145.622 56.084C146.39 56.084 146.982 55.956 147.398 55.7V52.4ZM153.277 52.268C154.301 52.268 155.117 52.616 155.725 53.312C156.333 54.008 156.617 54.904 156.577 56H150.925C150.973 56.68 151.217 57.216 151.657 57.608C152.097 58 152.653 58.196 153.325 58.196C154.309 58.196 154.997 57.812 155.389 57.044H156.421C156.149 57.724 155.737 58.244 155.185 58.604C154.633 58.956 154.001 59.132 153.289 59.132C152.305 59.132 151.493 58.816 150.853 58.184C150.221 57.544 149.905 56.724 149.905 55.724C149.905 54.724 150.221 53.9 150.853 53.252C151.485 52.596 152.293 52.268 153.277 52.268ZM153.277 53.204C152.685 53.204 152.181 53.376 151.765 53.72C151.357 54.064 151.093 54.512 150.973 55.064H155.497C155.385 54.504 155.133 54.056 154.741 53.72C154.349 53.376 153.861 53.204 153.277 53.204ZM161.633 52.268C162.529 52.268 163.265 52.592 163.841 53.24C164.425 53.88 164.717 54.7 164.717 55.7C164.717 56.7 164.425 57.524 163.841 58.172C163.257 58.812 162.517 59.132 161.621 59.132C161.061 59.132 160.561 59.004 160.121 58.748C159.689 58.484 159.345 58.124 159.089 57.668V62H158.093V52.4H159.089V53.756C159.345 53.292 159.693 52.928 160.133 52.664C160.573 52.4 161.073 52.268 161.633 52.268ZM161.441 58.184C162.105 58.184 162.649 57.952 163.073 57.488C163.497 57.024 163.709 56.428 163.709 55.7C163.709 54.98 163.497 54.388 163.073 53.924C162.649 53.452 162.105 53.216 161.441 53.216C160.761 53.216 160.197 53.452 159.749 53.924C159.301 54.388 159.077 54.98 159.077 55.7C159.077 56.42 159.301 57.016 159.749 57.488C160.197 57.952 160.761 58.184 161.441 58.184ZM169.332 52.268C170.356 52.268 171.172 52.616 171.78 53.312C172.388 54.008 172.672 54.904 172.632 56H166.98C167.028 56.68 167.272 57.216 167.712 57.608C168.152 58 168.708 58.196 169.38 58.196C170.364 58.196 171.052 57.812 171.444 57.044H172.476C172.204 57.724 171.792 58.244 171.24 58.604C170.688 58.956 170.056 59.132 169.344 59.132C168.36 59.132 167.548 58.816 166.908 58.184C166.276 57.544 165.96 56.724 165.96 55.724C165.96 54.724 166.276 53.9 166.908 53.252C167.54 52.596 168.348 52.268 169.332 52.268ZM169.332 53.204C168.74 53.204 168.236 53.376 167.82 53.72C167.412 54.064 167.148 54.512 167.028 55.064H171.552C171.44 54.504 171.188 54.056 170.796 53.72C170.404 53.376 169.916 53.204 169.332 53.204ZM178.395 55.508C178.779 55.636 179.063 55.848 179.247 56.144C179.439 56.432 179.535 56.768 179.535 57.152C179.535 57.752 179.287 58.232 178.791 58.592C178.303 58.952 177.631 59.132 176.775 59.132C174.943 59.132 173.883 58.376 173.595 56.864H174.603C174.819 57.856 175.531 58.352 176.739 58.352C177.339 58.352 177.787 58.236 178.083 58.004C178.379 57.772 178.527 57.464 178.527 57.08C178.527 56.344 178.067 55.976 177.147 55.976H175.815V55.184H176.871C177.831 55.184 178.311 54.86 178.311 54.212C178.311 53.868 178.175 53.588 177.903 53.372C177.639 53.148 177.219 53.036 176.643 53.036C175.635 53.036 175.023 53.416 174.807 54.176H173.799C173.935 53.576 174.243 53.108 174.723 52.772C175.203 52.436 175.851 52.268 176.667 52.268C177.499 52.268 178.147 52.444 178.611 52.796C179.083 53.14 179.319 53.592 179.319 54.152C179.319 54.8 179.011 55.252 178.395 55.508ZM189.257 52.4H190.481V59H189.485V55.832L189.545 53.612L185.741 59H184.517V52.4H185.513V55.568L185.453 57.776L189.257 52.4ZM197.292 52.4H198.288V59H197.292V56.096H193.236V59H192.24V52.4H193.236V55.148H197.292V52.4ZM205.048 52.4V53.336H202.768V59H201.772V53.336H199.492V52.4H202.768H205.048ZM209.141 52.268C210.165 52.268 210.981 52.616 211.589 53.312C212.197 54.008 212.481 54.904 212.441 56H206.789C206.837 56.68 207.081 57.216 207.521 57.608C207.961 58 208.517 58.196 209.189 58.196C210.173 58.196 210.861 57.812 211.253 57.044H212.285C212.013 57.724 211.601 58.244 211.049 58.604C210.497 58.956 209.865 59.132 209.153 59.132C208.169 59.132 207.357 58.816 206.717 58.184C206.085 57.544 205.769 56.724 205.769 55.724C205.769 54.724 206.085 53.9 206.717 53.252C207.349 52.596 208.157 52.268 209.141 52.268ZM209.141 53.204C208.549 53.204 208.045 53.376 207.629 53.72C207.221 54.064 206.957 54.512 206.837 55.064H211.361C211.249 54.504 210.997 54.056 210.605 53.72C210.213 53.376 209.725 53.204 209.141 53.204ZM217.496 52.268C218.392 52.268 219.128 52.592 219.704 53.24C220.288 53.88 220.58 54.7 220.58 55.7C220.58 56.7 220.288 57.524 219.704 58.172C219.12 58.812 218.38 59.132 217.484 59.132C216.924 59.132 216.424 59.004 215.984 58.748C215.552 58.484 215.208 58.124 214.952 57.668V62H213.956V52.4H214.952V53.756C215.208 53.292 215.556 52.928 215.996 52.664C216.436 52.4 216.936 52.268 217.496 52.268ZM217.304 58.184C217.968 58.184 218.512 57.952 218.936 57.488C219.36 57.024 219.572 56.428 219.572 55.7C219.572 54.98 219.36 54.388 218.936 53.924C218.512 53.452 217.968 53.216 217.304 53.216C216.624 53.216 216.06 53.452 215.612 53.924C215.164 54.388 214.94 54.98 214.94 55.7C214.94 56.42 215.164 57.016 215.612 57.488C216.06 57.952 216.624 58.184 217.304 58.184ZM227.139 52.4H228.135V59H227.139V56.096H223.083V59H222.087V52.4H223.083V55.148H227.139V52.4ZM233.023 52.268C234.047 52.268 234.863 52.616 235.471 53.312C236.079 54.008 236.363 54.904 236.323 56H230.671C230.719 56.68 230.963 57.216 231.403 57.608C231.843 58 232.399 58.196 233.071 58.196C234.055 58.196 234.743 57.812 235.135 57.044H236.167C235.895 57.724 235.483 58.244 234.931 58.604C234.379 58.956 233.747 59.132 233.035 59.132C232.051 59.132 231.239 58.816 230.599 58.184C229.967 57.544 229.651 56.724 229.651 55.724C229.651 54.724 229.967 53.9 230.599 53.252C231.231 52.596 232.039 52.268 233.023 52.268ZM233.023 53.204C232.431 53.204 231.927 53.376 231.511 53.72C231.103 54.064 230.839 54.512 230.719 55.064H235.243C235.131 54.504 234.879 54.056 234.487 53.72C234.095 53.376 233.607 53.204 233.023 53.204ZM242.548 52.4V53.336H240.268V59H239.272V53.336H236.992V52.4H240.268H242.548ZM91.196 70.508C91.58 70.636 91.864 70.848 92.048 71.144C92.24 71.432 92.336 71.768 92.336 72.152C92.336 72.752 92.088 73.232 91.592 73.592C91.104 73.952 90.432 74.132 89.576 74.132C87.744 74.132 86.684 73.376 86.396 71.864H87.404C87.62 72.856 88.332 73.352 89.54 73.352C90.14 73.352 90.588 73.236 90.884 73.004C91.18 72.772 91.328 72.464 91.328 72.08C91.328 71.344 90.868 70.976 89.948 70.976H88.616V70.184H89.672C90.632 70.184 91.112 69.86 91.112 69.212C91.112 68.868 90.976 68.588 90.704 68.372C90.44 68.148 90.02 68.036 89.444 68.036C88.436 68.036 87.824 68.416 87.608 69.176H86.6C86.736 68.576 87.044 68.108 87.524 67.772C88.004 67.436 88.652 67.268 89.468 67.268C90.3 67.268 90.948 67.444 91.412 67.796C91.884 68.14 92.12 68.592 92.12 69.152C92.12 69.8 91.812 70.252 91.196 70.508ZM99.084 67.4H100.08V74H99.084V72.668C98.82 73.124 98.468 73.484 98.028 73.748C97.596 74.004 97.1 74.132 96.54 74.132C95.644 74.132 94.904 73.812 94.32 73.172C93.744 72.524 93.456 71.7 93.456 70.7C93.456 69.7 93.744 68.88 94.32 68.24C94.904 67.592 95.644 67.268 96.54 67.268C97.1 67.268 97.6 67.4 98.04 67.664C98.48 67.928 98.828 68.292 99.084 68.756V67.4ZM96.732 73.184C97.412 73.184 97.976 72.952 98.424 72.488C98.872 72.016 99.096 71.42 99.096 70.7C99.096 69.98 98.872 69.388 98.424 68.924C97.976 68.452 97.412 68.216 96.732 68.216C96.06 68.216 95.512 68.452 95.088 68.924C94.672 69.388 94.464 69.98 94.464 70.7C94.464 71.428 94.676 72.024 95.1 72.488C95.524 72.952 96.068 73.184 96.732 73.184ZM111.391 73.04V74H105.091V73.28L107.527 71.156C108.655 70.172 109.375 69.5 109.687 69.14C110.007 68.78 110.167 68.396 110.167 67.988C110.167 67.524 109.995 67.148 109.651 66.86C109.307 66.564 108.847 66.416 108.271 66.416C107.695 66.416 107.231 66.572 106.879 66.884C106.527 67.188 106.291 67.62 106.171 68.18H105.163C105.283 67.348 105.627 66.688 106.195 66.2C106.763 65.712 107.471 65.468 108.319 65.468C109.167 65.468 109.851 65.704 110.371 66.176C110.899 66.648 111.163 67.24 111.163 67.952C111.163 68.528 110.971 69.048 110.587 69.512C110.211 69.968 109.463 70.68 108.343 71.648L106.735 73.04H111.391ZM122.024 67.4H123.248V74H122.252V70.832L122.312 68.504L119.84 71.996H119.804L117.332 68.504L117.404 70.832V74H116.408V67.4H117.632L119.828 70.472L122.024 67.4ZM128.129 67.268C129.153 67.268 129.969 67.616 130.577 68.312C131.185 69.008 131.469 69.904 131.429 71H125.777C125.825 71.68 126.069 72.216 126.509 72.608C126.949 73 127.505 73.196 128.177 73.196C129.161 73.196 129.849 72.812 130.241 72.044H131.273C131.001 72.724 130.589 73.244 130.037 73.604C129.485 73.956 128.853 74.132 128.141 74.132C127.157 74.132 126.345 73.816 125.705 73.184C125.073 72.544 124.757 71.724 124.757 70.724C124.757 69.724 125.073 68.9 125.705 68.252C126.337 67.596 127.145 67.268 128.129 67.268ZM128.129 68.204C127.537 68.204 127.033 68.376 126.617 68.72C126.209 69.064 125.945 69.512 125.825 70.064H130.349C130.237 69.504 129.985 69.056 129.593 68.72C129.201 68.376 128.713 68.204 128.129 68.204ZM136.028 74.132C135.06 74.132 134.248 73.808 133.592 73.16C132.944 72.504 132.62 71.684 132.62 70.7C132.62 69.716 132.944 68.9 133.592 68.252C134.248 67.596 135.06 67.268 136.028 67.268C136.812 67.268 137.5 67.488 138.092 67.928C138.684 68.368 139.064 68.96 139.232 69.704H138.2C138.048 69.24 137.776 68.872 137.384 68.6C136.992 68.328 136.54 68.192 136.028 68.192C135.332 68.192 134.756 68.428 134.3 68.9C133.852 69.372 133.628 69.972 133.628 70.7C133.628 71.428 133.852 72.028 134.3 72.5C134.756 72.972 135.332 73.208 136.028 73.208C136.54 73.208 136.988 73.072 137.372 72.8C137.764 72.528 138.04 72.16 138.2 71.696H139.232C139.056 72.448 138.672 73.044 138.08 73.484C137.488 73.916 136.804 74.132 136.028 74.132ZM142.8 67.4H146.016V74H145.02V71.504H143.292L141.372 74H140.136L142.2 71.444C141.656 71.348 141.228 71.144 140.916 70.832C140.604 70.512 140.448 70.088 140.448 69.56C140.448 68.864 140.652 68.332 141.06 67.964C141.468 67.588 142.048 67.4 142.8 67.4ZM142.884 70.664H145.02V68.3H142.836C141.916 68.3 141.456 68.712 141.456 69.536C141.456 70.288 141.932 70.664 142.884 70.664ZM153.61 73.064H154.81V75.764H153.814V74H152.614H148.114H147.79V67.4H148.786V73.064H152.614V67.4H153.61V73.064ZM161.158 67.4H162.154V74H161.158V72.668C160.894 73.124 160.542 73.484 160.102 73.748C159.67 74.004 159.174 74.132 158.614 74.132C157.718 74.132 156.978 73.812 156.394 73.172C155.818 72.524 155.53 71.7 155.53 70.7C155.53 69.7 155.818 68.88 156.394 68.24C156.978 67.592 157.718 67.268 158.614 67.268C159.174 67.268 159.674 67.4 160.114 67.664C160.554 67.928 160.902 68.292 161.158 68.756V67.4ZM158.806 73.184C159.486 73.184 160.05 72.952 160.498 72.488C160.946 72.016 161.17 71.42 161.17 70.7C161.17 69.98 160.946 69.388 160.498 68.924C160.05 68.452 159.486 68.216 158.806 68.216C158.134 68.216 157.586 68.452 157.162 68.924C156.746 69.388 156.538 69.98 156.538 70.7C156.538 71.428 156.75 72.024 157.174 72.488C157.598 72.952 158.142 73.184 158.806 73.184Z" fill="white"/>
<path d="M91.544 21.6H92.666V37H90.18V24.504L86.682 25.934V23.492L91.544 21.6ZM108.607 21.336C110.631 21.336 112.207 22.0473 113.337 23.47C114.466 24.878 115.031 26.8213 115.031 29.3C115.031 31.7787 114.466 33.7293 113.337 35.152C112.207 36.56 110.631 37.264 108.607 37.264C106.597 37.264 105.028 36.56 103.899 35.152C102.769 33.744 102.205 31.7933 102.205 29.3C102.205 26.8067 102.769 24.856 103.899 23.448C105.028 22.04 106.597 21.336 108.607 21.336ZM108.607 34.888C111.217 34.888 112.523 33.0253 112.523 29.3C112.523 25.5747 111.217 23.712 108.607 23.712C106.011 23.712 104.713 25.5747 104.713 29.3C104.713 33.0253 106.011 34.888 108.607 34.888ZM123.624 21.336C125.648 21.336 127.225 22.0473 128.354 23.47C129.483 24.878 130.048 26.8213 130.048 29.3C130.048 31.7787 129.483 33.7293 128.354 35.152C127.225 36.56 125.648 37.264 123.624 37.264C121.615 37.264 120.045 36.56 118.916 35.152C117.787 33.744 117.222 31.7933 117.222 29.3C117.222 26.8067 117.787 24.856 118.916 23.448C120.045 22.04 121.615 21.336 123.624 21.336ZM123.624 34.888C126.235 34.888 127.54 33.0253 127.54 29.3C127.54 25.5747 126.235 23.712 123.624 23.712C121.028 23.712 119.73 25.5747 119.73 29.3C119.73 33.0253 121.028 34.888 123.624 34.888ZM138.642 21.336C140.666 21.336 142.242 22.0473 143.372 23.47C144.501 24.878 145.066 26.8213 145.066 29.3C145.066 31.7787 144.501 33.7293 143.372 35.152C142.242 36.56 140.666 37.264 138.642 37.264C136.632 37.264 135.063 36.56 133.934 35.152C132.804 33.744 132.24 31.7933 132.24 29.3C132.24 26.8067 132.804 24.856 133.934 23.448C135.063 22.04 136.632 21.336 138.642 21.336ZM138.642 34.888C141.252 34.888 142.558 33.0253 142.558 29.3C142.558 25.5747 141.252 23.712 138.642 23.712C136.046 23.712 134.748 25.5747 134.748 29.3C134.748 33.0253 136.046 34.888 138.642 34.888ZM154.757 25.01V29.278H159.025V31.654H154.757V35.922H152.271V31.654H148.003V29.278H152.271V25.01H154.757Z" fill="white"/>
<circle cx="46" cy="49" r="26" fill="#F6F4FC"/>
<path d="M44.2927 41.561C44.6968 41.561 45.0244 41.905 45.0244 42.3293V50.5244H52.8293C53.1997 50.5244 53.5058 50.8134 53.5543 51.1884L53.561 51.2927C53.561 56.3845 49.6298 60 44.7805 60C39.9312 60 36 55.8723 36 50.7805C36 45.6887 39.4434 41.561 44.2927 41.561ZM43.561 43.1355L43.3572 43.1598C39.7579 43.6421 37.4634 46.8701 37.4634 50.7805C37.4634 55.0237 40.7394 58.4634 44.7805 58.4634C48.5046 58.4634 51.579 56.0543 52.0383 52.275L52.0605 52.061H44.2927C43.9222 52.061 43.6161 51.7719 43.5677 51.3969L43.561 51.2927V43.1355ZM47.2195 39C52.0688 39 56 43.1277 56 48.2195C56 48.6438 55.6724 48.9878 55.2683 48.9878H47.2195C46.8154 48.9878 46.4878 48.6438 46.4878 48.2195V39.7683C46.4878 39.344 46.8154 39 47.2195 39ZM47.9512 40.5745V47.4512H54.4995L54.4773 47.2372C54.0571 43.7796 51.448 41.0401 48.155 40.5988L47.9512 40.5745Z" fill="#212121"/>
</svg>
